<svg width="16" height="16" viewBox="0 0 16 16" fill="none" xmlns="http://www.w3.org/2000/svg">
<g id="bx:up-arrow">
<path id="Vector" d="M14 3.33333L2 3.33333C1.87851 3.33371 1.75942 3.36722 1.65555 3.43025C1.55168 3.49328 1.46697 3.58344 1.41054 3.69104C1.3541 3.79863 1.32808 3.91957 1.33527 4.04086C1.34246 4.16214 1.38258 4.27916 1.45133 4.37933L7.45134 13.046C7.7 13.4053 8.29867 13.4053 8.548 13.046L14.548 4.37933C14.6175 4.27937 14.6582 4.16229 14.6658 4.0408C14.6733 3.91932 14.6475 3.79808 14.591 3.69026C14.5345 3.58244 14.4496 3.49217 14.3454 3.42924C14.2412 3.36631 14.1217 3.33314 14 3.33333ZM8 11.4953L3.272 4.66667L12.728 4.66667L8 11.4953Z" fill="#0A6BC7"/>
</g>
</svg>
